<svg height="1467" viewBox="0 0 668 1467" width="668" xmlns="http://www.w3.org/2000/svg"><g fill="#eec88c" fill-rule="evenodd" transform="translate(0 49)"><path d="m454.561 344.36h-116.884c-5.918 0-10.731-4.82-10.731-10.73 0-2.16.634-4.23 1.831-6l.955-1.42-2.032-1.63h-46.663c-5.919 0-10.734-4.82-10.734-10.73 0-5.92 4.815-10.74 10.734-10.74h38.874c1.29 6.65 7.151 11.69 14.171 11.69h4.954v-3.71h-4.954c-5.917 0-10.732-4.81-10.732-10.73s4.815-10.73 10.732-10.73h38.661c5.916 0 10.733 4.81 10.733 10.73 0 .25-.011.49-.026.74l-.114 1.73 2.001.27 34.159.01c5.919 0 10.733 4.82 10.733 10.74 0 5.63-4.397 10.33-10.008 10.7l.247 3.71c4.155-.28 7.806-2.33 10.258-5.37h23.835c5.918 0 10.733 4.82 10.733 10.74 0 5.91-4.815 10.73-10.733 10.73m0-25.18h-21.652c.662-1.65 1.028-3.45 1.028-5.33 0-7.97-6.479-14.45-14.441-14.45h-32.341c-.494-7.52-6.771-13.48-14.412-13.48h-38.661c-7.64 0-13.898 5.97-14.393 13.48h-38.652c-7.964 0-14.443 6.48-14.443 14.45 0 7.96 6.479 14.44 14.443 14.44h43.218c-.672 1.68-1.019 3.49-1.019 5.34 0 7.96 6.478 14.44 14.441 14.44h116.884c7.963 0 14.441-6.48 14.441-14.44 0-7.97-6.478-14.45-14.441-14.45"/><path d="m450.283 862.272h-42.854l-1.861 1.505.876 1.295c1.099 1.63 1.681 3.533 1.681 5.508 0 5.434-4.421 9.855-9.856 9.855h-107.325c-5.435 0-9.856-4.421-9.856-9.855s4.421-9.855 9.856-9.855h21.885c2.251 2.792 5.605 4.669 9.419 4.924l.227-3.398c-5.153-.342-9.189-4.663-9.189-9.833 0-5.435 4.421-9.856 9.855-9.856h31.139l2.063-.266-.103-1.582c-.015-.224-.023-.452-.023-.68 0-5.433 4.421-9.856 9.856-9.856h35.499c5.435 0 9.854 4.423 9.854 9.856 0 5.432-4.419 9.854-9.854 9.854h-4.549v3.405h4.549c6.446 0 11.828-4.625 13.012-10.731h35.699c5.433 0 9.855 4.421 9.855 9.856 0 5.432-4.422 9.854-9.855 9.854m0-23.114h-35.494c-.454-6.905-6.2-12.386-13.217-12.386h-35.499c-7.019 0-12.778 5.479-13.233 12.386h-29.699c-7.312 0-13.26 5.948-13.26 13.26 0 1.726.335 3.38.944 4.902h-19.881c-7.312 0-13.262 5.947-13.262 13.26s5.95 13.262 13.262 13.262h107.325c7.314 0 13.261-5.949 13.261-13.262 0-1.696-.318-3.355-.934-4.901h39.687c7.31 0 13.26-5.95 13.26-13.261 0-7.312-5.95-13.26-13.26-13.26"/><path d="m245.76 589.412h-99.972l-1.944 1.569.914 1.355c1.149 1.701 1.757 3.691 1.757 5.754 0 5.676-4.618 10.294-10.294 10.294h-112.1053c-5.675 0-10.293-4.618-10.293-10.294s4.618-10.293 10.293-10.293h22.862c2.35 2.916 5.852 4.878 9.837 5.141l.236-3.549c-5.382-.359-9.597-4.87-9.597-10.271 0-5.677 4.619-10.294 10.294-10.294h32.525l2.159-.273-.112-1.662c-.016-.234-.024-.468-.024-.706 0-5.676 4.618-10.294 10.2933-10.294h37.081c5.676 0 10.294 4.618 10.294 10.294 0 5.677-4.618 10.294-10.294 10.294h-4.752v3.556h4.752c6.734 0 12.355-4.831 13.593-11.209h92.497c5.675 0 10.293 4.617 10.293 10.294s-4.618 10.294-10.293 10.294m0-24.145h-92.285c-.475-7.209-6.477-12.936-13.805-12.936h-37.081c-7.3293 0-13.3483 5.724-13.8213 12.936h-31.02c-7.638 0-13.851 6.212-13.851 13.851 0 1.803.35 3.531.987 5.12h-20.768c-7.637 0-13.851 6.214-13.851 13.852 0 7.637 6.214 13.851 13.851 13.851h112.1053c7.638 0 13.851-6.214 13.851-13.851 0-1.772-.333-3.503-.977-5.121h96.665c7.637 0 13.852-6.213 13.852-13.851 0-7.639-6.215-13.851-13.852-13.851"/><path d="m192.321 1086.767h-11.836c-.952-6.104-5.278-10.731-10.461-10.731h-3.655v3.405h3.655c4.368 0 7.922 4.42 7.922 9.854 0 5.433-3.554 9.854-7.922 9.854h-30.358c-4.368 0-7.923-4.421-7.923-9.854 0-.228.008-.453.018-.677l.085-1.585-1.567-.266h-58.2198c-4.367 0-7.921-4.423-7.921-9.855 0-5.171 3.245-9.49 7.385-9.833l-.181-3.399c-3.066.253-5.761 2.132-7.571 4.924h-36.75c-4.368 0-7.922-4.421-7.922-9.856s3.554-9.854 7.922-9.854h101.4668c4.369 0 7.923 4.419 7.923 9.854 0 1.976-.469 3.881-1.353 5.511l-.706 1.296 1.501 1.501h56.468c4.367 0 7.92 4.421 7.92 9.856 0 5.432-3.553 9.855-7.92 9.855m0-23.117h-53.926c.496-1.548.753-3.205.753-4.902 0-7.312-4.782-13.261-10.66-13.261h-101.4668c-5.878 0-10.66 5.949-10.66 13.261 0 7.314 4.782 13.261 10.66 13.261h35.139c-.489 1.522-.759 3.178-.759 4.903 0 7.311 4.781 13.261 10.658 13.261h56.9688c.365 6.905 4.997 12.384 10.638 12.384h30.358c5.64 0 10.259-5.479 10.624-12.384h11.673c5.878 0 10.658-5.95 10.658-13.261 0-7.312-4.78-13.262-10.658-13.262"/><path d="m645.636 709.007h-39.142v-20.571h-3.341v20.571h-39.142v8.444h81.625z"/><path d="m564.011 825.697h39.142v17.339c-2.905.745-5.054 3.372-5.054 6.506v27.292h5.551v-19.706h2.347v19.706h5.55v-27.292c0-3.134-2.151-5.761-5.053-6.506v-17.339h39.142v-8.442h-81.625z"/><path d="m645.325 741.452 5.521-9.565-5.521-9.563h-81.003l-5.523 9.563 5.523 9.565z"/><path d="m564.322 745.966-5.523 9.565 5.523 9.563h81.003l5.521-9.563-5.521-9.565z"/><path d="m564.322 769.609-5.523 9.565 5.523 9.563h81.003l5.521-9.563-5.521-9.565z"/><path d="m564.322 793.253-5.523 9.563 5.523 9.562h81.003l5.521-9.562-5.521-9.563z"/><path d="m298.692 371.41h-39.141v-20.57h-3.342v20.57h-39.141v8.45h81.624z"/><path d="m217.068 488.1h39.141v17.34c-2.906.743-5.055 3.372-5.055 6.506v27.291h5.552v-19.705h2.347v19.705h5.55v-27.291c0-3.134-2.151-5.763-5.052-6.506v-17.34h39.141v-8.442h-81.624z"/><path d="m298.383 403.85 5.52-9.56-5.52-9.56h-81.003l-5.523 9.56 5.523 9.56z"/><path d="m217.38 408.37-5.523 9.56 5.523 9.57h81.003l5.519-9.57-5.519-9.56z"/><path d="m217.38 432.01-5.523 9.57 5.523 9.56h81.003l5.519-9.56-5.519-9.57z"/><path d="m217.38 455.66-5.523 9.56 5.523 9.565h81.003l5.519-9.565-5.519-9.56z"/><path d="m492.185 534.195c-1.896-2.512-.187-7.004-.187-7.004s4.791-.418 6.685 2.095c1.901 2.512 1.983 5.648.186 7.005-1.794 1.353-4.786.417-6.684-2.096m16.979 16.32c2.666-2.009 6.23-2.379 10.021-1.361.078-5.206-2.077-11.456-6.324-17.086-7.455-9.868-27.51-13.079-27.51-13.079s-2.397 20.168 5.06 30.038c4.248 5.629 9.673 9.409 14.698 10.757.061-3.923 1.389-7.253 4.055-9.269"/><path d="m496.825 511.431s1.081-4.684 4.059-5.712c2.975-1.029 5.984-.139 6.718 1.986.735 2.126-1.083 4.684-4.058 5.711-2.976 1.029-6.719-1.985-6.719-1.985m34.649-2.642c-3.714-1.269-6.469-3.561-7.56-6.719-1.092-3.156-.337-6.66 1.801-9.95-4.924-1.685-11.54-1.568-18.202.733-11.691 4.043-20.942 22.125-20.942 22.125s18.438 8.509 30.13 4.472c6.666-2.306 11.937-6.293 14.773-10.661"/><path d="m483.062 490.68c2.25-.044 4.122 2.477 4.177 5.628.059 3.145-3.961 5.774-3.961 5.774s-4.122-2.477-4.181-5.627c-.058-3.146 1.716-5.732 3.965-5.775m.068 21.896s13.794-14.907 13.567-27.274c-.133-7.05-2.297-13.299-5.575-17.344-2.351 3.14-5.385 5.052-8.725 5.115-3.339.063-6.44-1.738-8.911-4.787-3.121 4.164-5.053 10.489-4.922 17.539.227 12.366 14.566 26.751 14.566 26.751"/><path d="m463.741 514.251c-3.012-.919-4.921-3.408-4.268-5.558.655-2.147 3.625-3.151 6.643-2.234 3.014.921 4.268 5.558 4.268 5.558s-3.632 3.152-6.643 2.234m-5.704-20.472c-6.744-2.055-13.357-1.927-18.217-.062 2.259 3.209 3.142 6.683 2.171 9.88-.975 3.196-3.645 5.588-7.309 6.993 2.996 4.257 8.413 8.05 15.159 10.104 11.832 3.602 29.944-5.588 29.944-5.588s-9.913-17.726-21.748-21.327"/><path d="m469.082 536.699c-1.842-1.287-1.877-4.424-.074-7.004 1.805-2.581 6.603-2.341 6.603-2.341s1.879 4.424.078 7.004c-1.809 2.587-4.764 3.631-6.607 2.341m12.075-17.629s-19.922 3.951-27.005 14.091c-4.041 5.782-5.961 12.109-5.688 17.307 3.753-1.155 7.328-.921 10.066.991s4.19 5.191 4.395 9.11c4.976-1.533 10.254-5.515 14.293-11.294 7.082-10.139 3.939-30.205 3.939-30.205"/><path d="m149.086 493.924c-1.897-2.512-.187-7.005-.187-7.005s4.79-.417 6.685 2.096c1.901 2.511 1.982 5.648.187 7.005-1.795 1.353-4.787.417-6.685-2.096m16.979 16.32c2.667-2.009 6.23-2.379 10.022-1.361.077-5.206-2.076-11.456-6.326-17.085-7.454-9.869-27.51-13.08-27.51-13.08s-2.395 20.168 5.06 30.038c4.249 5.629 9.674 9.409 14.7 10.756.06-3.922 1.388-7.252 4.054-9.268"/><path d="m153.727 471.161s1.08-4.684 4.059-5.711c2.975-1.03 5.985-.14 6.718 1.984.734 2.127-1.083 4.685-4.058 5.712-2.976 1.029-6.719-1.985-6.719-1.985m34.65-2.642c-3.715-1.269-6.469-3.559-7.562-6.719-1.091-3.16-.335-6.66 1.801-9.95-4.923-1.69-11.538-1.57-18.201.73-11.692 4.05-20.942 22.128-20.942 22.128s18.439 8.51 30.13 4.472c6.665-2.306 11.937-6.293 14.774-10.661"/><path d="m139.963 450.41c2.25-.04 4.121 2.48 4.178 5.63.058 3.14-3.963 5.77-3.963 5.77s-4.12-2.48-4.181-5.63c-.056-3.14 1.718-5.73 3.966-5.77m.07 21.896s13.792-14.906 13.565-27.276c-.132-7.05-2.297-13.3-5.574-17.34-2.353 3.14-5.385 5.05-8.725 5.11-3.339.07-6.44-1.74-8.911-4.78-3.123 4.16-5.055 10.48-4.923 17.53.228 12.37 14.568 26.756 14.568 26.756"/><path d="m120.643 473.98c-3.011-.919-4.921-3.408-4.267-5.558.655-2.148 3.625-3.152 6.643-2.234 3.013.921 4.267 5.558 4.267 5.558s-3.632 3.152-6.643 2.234m-5.704-20.47c-6.744-2.06-13.358-1.93-18.2165-.06 2.258 3.21 3.141 6.68 2.169 9.88-.974 3.191-3.644 5.584-7.307 6.988 2.996 4.258 8.413 8.051 15.1585 10.105 11.833 3.602 29.944-5.588 29.944-5.588s-9.913-17.725-21.748-21.325"/><path d="m125.983 496.428c-1.843-1.287-1.878-4.424-.074-7.004 1.805-2.581 6.603-2.341 6.603-2.341s1.878 4.425.077 7.004c-1.808 2.587-4.762 3.631-6.606 2.341m12.075-17.629s-19.921 3.951-27.006 14.091c-4.04 5.782-5.96 12.109-5.686 17.307 3.753-1.155 7.328-.922 10.066.991 2.738 1.912 4.19 5.191 4.395 9.11 4.975-1.533 10.254-5.515 14.292-11.294 7.082-10.139 3.939-30.205 3.939-30.205"/><path d="m611.554 287.83c-1.896-2.51-.187-7-.187-7s4.791-.42 6.685 2.09c1.902 2.51 1.985 5.65.188 7.01-1.794 1.35-4.786.41-6.686-2.1m16.98 16.32c2.666-2.01 6.231-2.38 10.023-1.36.077-5.21-2.077-11.46-6.327-17.08-7.453-9.88-27.51-13.09-27.51-13.09s-2.395 20.17 5.06 30.04c4.248 5.63 9.673 9.41 14.7 10.76.061-3.92 1.39-7.25 4.054-9.27"/><path d="m616.194 265.07s1.081-4.69 4.061-5.72c2.975-1.02 5.984-.13 6.718 1.99.733 2.13-1.084 4.69-4.058 5.71-2.978 1.03-6.721-1.98-6.721-1.98m34.652-2.64c-3.715-1.27-6.471-3.57-7.563-6.72-1.09-3.16-.336-6.66 1.801-9.95-4.923-1.69-11.538-1.57-18.202.73-11.691 4.04-20.94 22.12-20.94 22.12s18.438 8.51 30.128 4.48c6.666-2.31 11.938-6.3 14.776-10.66"/><path d="m602.433 244.32c2.25-.05 4.122 2.47 4.177 5.62.058 3.15-3.961 5.78-3.961 5.78s-4.122-2.48-4.183-5.63c-.056-3.15 1.717-5.73 3.967-5.77m.068 21.89s13.793-14.91 13.565-27.27c-.131-7.05-2.296-13.3-5.573-17.35-2.353 3.14-5.383 5.06-8.725 5.12-3.339.06-6.439-1.74-8.911-4.79-3.123 4.17-5.053 10.49-4.922 17.54.228 12.37 14.566 26.75 14.566 26.75"/><path d="m583.112 267.89c-3.014-.92-4.922-3.41-4.268-5.56.657-2.15 3.625-3.15 6.644-2.24 3.011.93 4.265 5.56 4.265 5.56s-3.63 3.15-6.641 2.24m-5.702-20.48c-6.748-2.05-13.36-1.92-18.221-.06 2.26 3.21 3.143 6.69 2.171 9.88-.975 3.2-3.644 5.59-7.306 7 2.995 4.25 8.412 8.05 15.158 10.1 11.832 3.6 29.944-5.59 29.944-5.59s-9.914-17.72-21.746-21.33"/><path d="m588.453 290.33c-1.844-1.28-1.879-4.42-.076-7 1.805-2.58 6.605-2.34 6.605-2.34s1.877 4.42.076 7c-1.807 2.59-4.762 3.63-6.605 2.34m12.074-17.62s-19.922 3.95-27.006 14.09c-4.039 5.78-5.96 12.11-5.685 17.3 3.752-1.15 7.327-.92 10.065.99 2.74 1.92 4.19 5.2 4.395 9.11 4.975-1.53 10.254-5.51 14.291-11.29 7.084-10.14 3.94-30.2 3.94-30.2"/><path d="m459.433 721.607-8.403-1.674-1.668 8.407 21.955 21.957z"/><path d="m475.886 717.351-7.124-4.761-4.759 7.124 11.883 28.687z"/><path d="m465.926 758.363-28.688-11.882-7.125 4.756 4.763 7.126z"/><path d="m507.358 728.337-1.672-8.404-8.401 1.674-11.884 28.686z"/><path d="m487.956 712.59-7.124 4.761v31.05l11.882-28.687z"/><path d="m517.587 741.91 1.672-8.403-8.406-1.67-21.955 21.956z"/><path d="m521.842 758.363 4.761-7.126-7.124-4.756-28.689 11.882z"/><path d="m434.874 763.307-4.761 7.124 7.124 4.759 28.689-11.883z"/><path d="m467.82 753.793-21.958-21.956-8.403 1.67 1.672 8.403z"/><path d="m480.832 804.319 7.124 4.761 4.759-7.126-11.883-28.687z"/><path d="m488.897 767.877 21.955 21.955 8.406-1.67-1.672-8.401z"/><path d="m497.285 800.062 8.401 1.67 1.672-8.401-21.957-21.955z"/><path d="m490.79 763.307 28.687 11.883 7.126-4.759-4.761-7.124z"/><path d="m449.361 793.331 1.668 8.401 8.403-1.67 11.884-28.685z"/><path d="m439.131 779.76-1.672 8.401 8.403 1.67 21.955-21.955z"/><path d="m468.762 809.08 7.124-4.761v-31.052l-11.883 28.687z"/><path d="m485.405 760.835c0-3.892-3.154-7.05-7.048-7.05-3.892 0-7.047 3.158-7.047 7.05 0 3.893 3.155 7.047 7.047 7.047 3.894 0 7.048-3.154 7.048-7.047"/><path d="m127.668 656.335 23.123 23.123-12.515-30.214-8.849-1.76zm25.641 26.893-26.601-26.601 2.023-10.183 10.181 2.026z"/><path d="m144.269 646.765 12.513 30.213v-32.702l-7.502-5.016zm13.397 34.656-14.395-34.756 5.766-8.63 8.629 5.767z"/><path d="m111.021 690.036h32.702l-30.214-12.517-7.503 5.014zm37.146.885h-37.618l-5.768-8.632 8.631-5.766z"/><path d="m181.771 649.245-12.514 30.214 23.124-23.123-1.758-8.851zm-15.03 33.979 14.394-34.753 10.182-2.026 2.023 10.181-.166.168z"/><path d="m163.267 644.276v32.7l12.514-30.213-5.01-7.503zm-.884 37.146v-37.62l8.633-5.767 5.763 8.63z"/><path d="m196.965 660.921-23.124 23.126 30.217-12.517 1.76-8.85zm-26.89 25.642 26.599-26.603 10.185 2.025-2.028 10.182z"/><path d="m176.325 690.036h32.7l5.017-7.503-7.502-5.014zm33.174.885h-37.618l34.757-14.398 8.629 5.766z"/><path d="m106.007 704.022 7.505 5.012 30.212-12.513h-32.703zm7.407 6.01-8.633-5.766 5.769-8.63h37.618z"/><path d="m115.993 671.531 30.212 12.515-23.123-23.124-8.85 1.758zm33.979 15.03-34.754-14.393-2.026-10.182 10.181-2.025.166.168z"/><path d="m163.267 742.281 7.504 5.014 5.01-7.504-12.514-30.213zm7.749 6.24-8.633-5.767v-37.62l14.396 34.753z"/><path d="m173.843 702.511 23.122 23.122 8.852-1.758-1.759-8.849zm22.831 24.081-.167-.166-26.432-26.431 34.756 14.394 2.026 10.18z"/><path d="m181.771 737.31 8.852 1.76 1.758-8.849-23.124-23.124zm9.546 2.801-10.182-2.028-14.394-34.754 26.599 26.6z"/><path d="m176.325 696.521 30.212 12.513 7.505-5.012-5.017-7.501zm30.311 13.511-34.755-14.396h37.618l5.768 8.63z"/><path d="m127.668 730.221 1.759 8.849 8.849-1.76 12.514-30.213zm1.063 9.89-2.023-10.182.167-.168 26.433-26.433-14.396 34.755z"/><path d="m114.229 723.876 8.854 1.758 23.122-23.122-30.215 12.514zm9.145 2.717-10.185-2.024 2.026-10.179 34.757-14.394z"/><path d="m144.269 739.791 5.011 7.504 7.502-5.014v-32.703zm4.768 8.73-5.766-8.633 14.395-34.754v37.62z"/><path d="m160.025 685.739c-4.157 0-7.54 3.382-7.54 7.538 0 4.159 3.383 7.54 7.54 7.54 4.156 0 7.538-3.381 7.538-7.54 0-4.156-3.382-7.538-7.538-7.538m0 15.961c-4.645 0-8.423-3.777-8.423-8.423 0-4.644 3.778-8.423 8.423-8.423s8.422 3.779 8.422 8.423c0 4.646-3.777 8.423-8.422 8.423"/><path d="m573.537 551.68-9.67-1.925-1.923 9.672 25.271 25.271z"/><path d="m592.475 546.781-8.2-5.479-5.478 8.201 13.678 33.014z"/><path d="m581.012 593.981-33.017-13.676-8.2 5.478 5.48 8.198z"/><path d="m628.697 559.426-1.925-9.671-9.672 1.925-13.674 33.014z"/><path d="m606.363 541.301-8.198 5.479v35.737l13.677-33.017z"/><path d="m640.467 575.045 1.927-9.671-9.676-1.921-25.268 25.269z"/><path d="m645.365 593.981 5.481-8.198-8.202-5.478-33.015 13.676z"/><path d="m545.274 599.672-5.479 8.198 8.2 5.478 33.016-13.676z"/><path d="m583.188 588.721-25.267-25.268-9.671 1.921 1.922 9.671z"/><path d="m598.165 646.873 8.198 5.48 5.48-8.203-13.678-33.014z"/><path d="m607.45 604.933 25.268 25.268 9.673-1.922-1.924-9.672z"/><path d="m617.101 641.973 9.672 1.925 1.925-9.672-25.271-25.269z"/><path d="m609.629 599.672 33.016 13.676 8.202-5.478-5.48-8.198z"/><path d="m561.944 634.226 1.923 9.672 9.67-1.925 13.678-33.016z"/><path d="m550.171 618.607-1.925 9.672 9.676 1.922 25.267-25.268z"/><path d="m584.274 652.353 8.2-5.48v-35.738l-13.678 33.015z"/><path d="m603.431 596.826c0-4.479-3.631-8.111-8.11-8.111-4.481 0-8.114 3.632-8.114 8.111s3.633 8.111 8.114 8.111c4.479 0 8.11-3.632 8.11-8.111"/><path d="m383.739 416.83h2.935v-11.35c.973-.54 1.603-1.57 1.603-2.69 0-1.69-1.377-3.07-3.069-3.07-1.694 0-3.07 1.38-3.07 3.07 0 1.12.63 2.15 1.601 2.69zm4.466 1.82 2.557 1.43 5.559-9.9h.041c1.109 0 2.133-.59 2.671-1.56.832-1.47.305-3.35-1.171-4.18-.46-.25-.977-.39-1.5-.39-1.111 0-2.138.6-2.679 1.57-.549.98-.506 2.19.081 3.13zm-8.862 1.43 2.558-1.43-5.56-9.9c.588-.94.631-2.15.083-3.13-.543-.97-1.57-1.57-2.68-1.57-.523 0-1.041.14-1.501.39-1.477.83-2 2.71-1.171 4.18.538.97 1.564 1.56 2.674 1.56h.038zm11.271 8.55c-1.668-1.06-3.582-1.61-5.563-1.61-1.977 0-3.886.55-5.55 1.61l-18.635-18.64c.889-12.65 11.461-22.53 24.185-22.53 12.733 0 23.307 9.88 24.19 22.55z"/><path d="m373.744 464.64c-1.109 0-2.134.6-2.672 1.563-.403.714-.5 1.543-.279 2.332.221.791.736 1.447 1.45 1.846.46.258.979.394 1.501.394 1.11 0 2.137-.6 2.68-1.567.549-.979.506-2.188-.083-3.128l5.56-9.9-2.559-1.44-5.558 9.9c-.014 0-.028 0-.04 0zm20.021 1.44c-.587.94-.631 2.149-.082 3.128.541.967 1.568 1.567 2.679 1.567.524 0 1.04-.136 1.5-.394.713-.399 1.23-1.055 1.45-1.846.224-.789.124-1.618-.279-2.332-.538-.963-1.561-1.563-2.671-1.563-.013 0-.027 0-.041 0l-5.558-9.9-2.558 1.44zm-10.333 3.271c-.973.532-1.603 1.564-1.603 2.688 0 1.692 1.376 3.07 3.067 3.07 1.695 0 3.072-1.378 3.072-3.07 0-1.124-.63-2.156-1.602-2.688v-11.351h-2.934zm1.62 18.015c-12.729-.002-23.301-9.88-24.186-22.536l18.631-18.63c1.666 1.05 3.577 1.61 5.555 1.61 1.985 0 3.897-.56 5.567-1.62l18.622 18.62c-.879 12.67-11.451 22.554-24.189 22.556z"/><path d="m402.384 431.7 1.436 2.56 9.901-5.56c.488.31 1.056.48 1.638.48.518 0 1.033-.14 1.49-.4.715-.4 1.231-1.05 1.452-1.84.222-.79.122-1.62-.277-2.34-.543-.96-1.57-1.56-2.681-1.56-.521 0-1.042.13-1.498.39-.981.55-1.571 1.61-1.563 2.71zm14.606 7.33c.535.98 1.566 1.61 2.689 1.61 1.693 0 3.069-1.38 3.069-3.07s-1.376-3.07-3.069-3.07c-1.123 0-2.154.63-2.687 1.6h-11.356v2.93zm-4.708 9.65c-.008 1.11.582 2.17 1.563 2.72.456.25.977.39 1.498.39 1.111 0 2.136-.6 2.681-1.57.399-.71.499-1.54.277-2.33-.221-.79-.737-1.45-1.452-1.85-.457-.25-.972-.39-1.49-.39-.582 0-1.15.17-1.638.47l-9.901-5.56-1.436 2.56zm-18.446-5.72c1.058-1.66 1.617-3.57 1.617-5.55s-.561-3.89-1.617-5.55l18.629-18.63c12.663.88 22.54 11.45 22.54 24.18s-9.875 23.3-22.533 24.19z"/><path d="m366.289 434.26 1.435-2.56-9.901-5.56c.013-1.1-.58-2.16-1.56-2.71-.458-.26-.976-.39-1.498-.39-1.112 0-2.137.6-2.68 1.57-.4.71-.499 1.54-.278 2.33s.738 1.44 1.452 1.84c.455.26.971.4 1.49.4.58 0 1.149-.17 1.638-.48zm-15.86-.07c-1.694 0-3.072 1.38-3.072 3.07s1.378 3.07 3.072 3.07c1.123 0 2.155-.63 2.685-1.6h11.356v-2.94h-11.356c-.53-.97-1.562-1.6-2.685-1.6zm4.32 11.46c-.521 0-1.035.14-1.491.39-.713.4-1.23 1.06-1.451 1.85s-.122 1.62.278 2.33c.543.97 1.568 1.57 2.68 1.57.522 0 1.04-.14 1.5-.39.978-.55 1.571-1.61 1.558-2.72l9.901-5.56-1.435-2.55-9.902 5.55c-.489-.3-1.058-.47-1.638-.47zm2.895 15.95c-12.663-.88-22.542-11.45-22.542-24.19 0-12.73 9.885-23.31 22.551-24.18l18.624 18.62c-1.063 1.67-1.622 3.58-1.622 5.56s.557 3.9 1.62 5.56z"/><path d="m169.88 961.683h2.199v-8.515c.731-.397 1.202-1.172 1.202-2.015 0-1.268-1.032-2.301-2.3-2.301-1.27 0-2.302 1.033-2.302 2.301 0 .842.471 1.617 1.201 2.015zm3.347 1.361 1.918 1.078 4.169-7.423h.028c.832 0 1.601-.448 2.006-1.17.622-1.107.226-2.513-.88-3.132-.344-.195-.734-.296-1.126-.296-.832 0-1.601.45-2.009 1.174-.411.734-.379 1.641.062 2.346zm-6.644 1.078 1.917-1.078-4.168-7.423c.442-.705.474-1.612.062-2.346-.408-.724-1.178-1.174-2.009-1.174-.393 0-.781.101-1.125.294-1.108.621-1.501 2.027-.88 3.134.405.722 1.173 1.17 2.005 1.17h.029zm8.45 6.411c-1.251-.796-2.684-1.213-4.17-1.213-1.482 0-2.913.416-4.163 1.21l-13.972-13.974c.667-9.489 8.593-16.894 18.135-16.894 9.546 0 17.475 7.409 18.137 16.904z"/><path d="m162.385 997.533c-.833 0-1.6.448-2.005 1.17-.301.534-.375 1.156-.208 1.748.166.594.552 1.084 1.088 1.385.344.193.732.296 1.125.296.831 0 1.602-.451 2.008-1.177.413-.734.381-1.64-.061-2.344l4.168-7.425-1.918-1.075-4.168 7.423c-.009-.001-.019-.001-.029-.001zm15.01 1.078c-.441.704-.474 1.61-.062 2.344.408.726 1.177 1.177 2.009 1.177.393 0 .782-.103 1.126-.296.535-.301.922-.791 1.09-1.385.166-.592.091-1.214-.21-1.748-.405-.722-1.174-1.17-2.004-1.17-.011 0-.021 0-.031.001l-4.168-7.423-1.918 1.075zm-7.747 2.453c-.73.398-1.202 1.172-1.202 2.014 0 1.269 1.033 2.303 2.301 2.303 1.27 0 2.302-1.034 2.302-2.303 0-.841-.472-1.616-1.201-2.014v-8.514h-2.2zm1.216 13.506c-9.545-.001-17.471-7.407-18.136-16.9l13.969-13.97c1.25.794 2.683 1.212 4.167 1.212 1.487 0 2.921-.42 4.172-1.215l13.965 13.962c-.659 9.499-8.588 16.91-18.137 16.911z"/><path d="m183.857 972.835 1.078 1.917 7.422-4.168c.367.23.793.355 1.229.355.389 0 .776-.102 1.118-.293.536-.302.923-.793 1.088-1.385.166-.593.091-1.213-.209-1.748-.407-.727-1.176-1.176-2.009-1.176-.392 0-.779.101-1.124.295-.734.412-1.179 1.202-1.169 2.034zm10.953 5.497c.4.729 1.174 1.201 2.016 1.201 1.269 0 2.301-1.032 2.301-2.302 0-1.268-1.032-2.3-2.301-2.3-.842 0-1.616.471-2.016 1.201h-8.514v2.2zm-3.529 7.232c-.01.833.435 1.623 1.17 2.036.342.192.731.296 1.123.296.833 0 1.602-.453 2.009-1.176.3-.536.375-1.157.209-1.75-.165-.591-.552-1.083-1.088-1.385-.342-.191-.729-.292-1.118-.292-.436 0-.862.124-1.229.353l-7.422-4.167-1.078 1.919zm-13.831-4.286c.793-1.249 1.209-2.681 1.209-4.162 0-1.484-.417-2.917-1.211-4.168l13.969-13.968c9.494.664 16.9 8.589 16.9 18.136 0 9.54-7.404 17.469-16.895 18.134z"/><path d="m156.792 974.752 1.078-1.917-7.424-4.169c.01-.832-.434-1.622-1.169-2.034-.342-.194-.731-.295-1.124-.295-.833 0-1.602.449-2.008 1.176-.301.535-.376 1.155-.208 1.748.165.592.55 1.083 1.087 1.384.341.192.728.294 1.118.294.435 0 .861-.125 1.228-.355zm-11.891-.053c-1.269 0-2.301 1.032-2.301 2.3 0 1.269 1.032 2.302 2.301 2.302.842 0 1.617-.472 2.016-1.201h8.513v-2.201h-8.513c-.399-.73-1.174-1.2-2.016-1.2zm3.241 8.594c-.39 0-.777.101-1.118.292-.537.302-.922.794-1.087 1.385-.168.593-.093 1.214.208 1.75.406.723 1.175 1.176 2.008 1.176.393 0 .782-.104 1.124-.296.735-.413 1.179-1.203 1.169-2.036l7.424-4.166-1.078-1.919-7.423 4.167c-.366-.229-.792-.353-1.227-.353zm2.171 11.96c-9.495-.663-16.903-8.589-16.903-18.137 0-9.551 7.411-17.478 16.909-18.137l13.964 13.963c-.796 1.252-1.217 2.686-1.217 4.174 0 1.485.419 2.918 1.215 4.168z"/><path d="m473.733 920.772h-2.582l-8.437 12.134c-.912-2.121-1.42-4.456-1.42-6.913 0-9.668 7.836-17.505 17.503-17.505.417 0 .832.021 1.244.049 1.553-8.074 8.654-14.174 17.183-14.174 2.737 0 5.327.628 7.635 1.75 4.547-7.666 12.901-12.806 22.46-12.806 14.416 0 26.103 11.687 26.103 26.102 0 11.75-7.763 21.683-18.441 24.959l11.445-16.462h-2.583l-11.957 17.2c-.984.175-1.984.295-3.002.355l12.205-17.555h-2.583l-12.218 17.576c-1.69-.066-3.339-.288-4.931-.661-1.024 8.69-8.411 15.431-17.377 15.431-.067 0-.132-.005-.198-.006l14.229-20.465h-2.582l-14.092 20.269c-.815-.123-1.611-.302-2.384-.535l13.721-19.734h-2.583l-13.192 18.974c-.698-.308-1.372-.665-2.018-1.059l12.456-17.915h-2.582l-11.612 16.7c-.597-.473-1.161-.982-1.693-1.528l10.551-15.172h-2.584l-9.394 13.512c-.49-.649-.936-1.331-1.333-2.045l7.974-11.467h-2.583l-8.612 12.386c-1.912.791-3.992 1.251-6.174 1.311l15.786-22.706h-2.581l-15.717 22.606c-.833-.095-1.648-.247-2.44-.455l15.402-22.151h-2.582l-14.915 21.453c-.713-.287-1.402-.621-2.064-.997l14.223-20.456h-2.581l-13.422 19.304c-.61-.451-1.189-.944-1.734-1.468l12.401-17.836h-2.583l-11.289 16.239c-.505-.624-.97-1.28-1.387-1.968z"/><path d="m638.708 919.92 12.139 6.638-12.139 6.635-6.636 12.135-6.639-12.135-12.133-6.635 12.133-6.638 6.639-12.137z"/><path d="m268.27 246.63 12.137 6.64-12.137 6.64-6.637 12.13-6.638-12.13-12.133-6.64 12.133-6.64 6.638-12.13z"/><path d="m179.871 845.548 12.137 6.638-12.137 6.637-6.636 12.136-6.639-12.136-12.135-6.637 12.135-6.638 6.639-12.137z"/><path d="m548.584 867.622 5.689 3.111-5.689 3.113-3.111 5.687-3.113-5.687-5.689-3.113 5.689-3.111 3.113-5.687z"/><path d="m333.006 515.098 5.098 2.788-5.098 2.788-2.787 5.096-2.789-5.096-5.097-2.788 5.097-2.788 2.789-5.097z"/><path d="m365.215 531.665 8.249 4.512-8.249 4.512-4.511 8.251-4.515-8.251-8.249-4.512 8.249-4.512 4.515-8.251z"/><path d="m59.4609 964.527 5.096 2.786-5.096 2.788-2.787 5.097-2.789-5.097-5.096-2.788 5.096-2.786 2.789-5.097z"/><path d="m91.6708 981.091 8.248 4.513-8.248 4.512-4.513 8.25-4.513-8.25-8.25-4.512 8.25-4.513 4.513-8.25z"/><path d="m242.359 630.743 6.937 3.794-6.937 3.793-3.792 6.936-3.796-6.936-6.933-3.793 6.933-3.794 3.796-6.935z"/><path d="m91.4394 644.426 6.937 3.794-6.937 3.794-3.793 6.934-3.795-6.934-6.935-3.794 6.935-3.794 3.795-6.936z"/><path d="m525.773 285.34 6.935 3.8-6.935 3.79-3.795 6.94-3.795-6.94-6.933-3.79 6.933-3.8 3.795-6.93z"/><path d="m463.927 388.5 6.935 3.79-6.935 3.8-3.793 6.93-3.795-6.93-6.935-3.8 6.935-3.79 3.795-6.94z"/><path d="m50.9599 481.453 9.438 5.164-9.438 5.161-5.162 9.44-5.163-9.44-9.439-5.161 9.439-5.164 5.163-9.437z"/><path d="m45.1334 469.004h1.327v-11.823h-1.327z"/><path d="m45.1334 516.051h1.327v-11.822h-1.327z"/><path d="m63.4104 487.28h11.822v-1.327h-11.822z"/><path d="m16.3614 487.28h11.822v-1.327h-11.822z"/><path d="m502.983 655.439 9.439 5.164-9.439 5.162-5.161 9.439-5.164-9.439-9.438-5.162 9.438-5.164 5.164-9.438z"/><path d="m497.014 642.954h1.324v-11.822h-1.324z"/><path d="m497.014 690.003h1.324v-11.821h-1.324z"/><path d="m515.289 661.229h11.821v-1.327h-11.821z"/><path d="m468.239 661.229h11.825v-1.327h-11.825z"/><path d="m326.747 255.12c0-4.05 3.294-7.35 7.346-7.35h100.848c1.677 2.08 4.177 3.49 7.02 3.67l.17-2.53c-3.841-.25-6.85-3.47-6.85-7.33 0-4.05 3.296-7.35 7.347-7.35l23.381-.01 1.369-.18-.078-1.18c-.011-.17-.018-.34-.018-.51 0-4.05 3.296-7.35 7.346-7.35h26.462c4.052 0 7.345 3.3 7.345 7.35s-3.293 7.35-7.345 7.35h-3.39v2.54h3.39c4.807 0 8.817-3.45 9.7-8.01h26.609c4.05 0 7.346 3.3 7.346 7.35s-3.296 7.35-7.346 7.35h-31.941l-1.391 1.11.654.97c.82 1.22 1.254 2.64 1.254 4.11 0 4.05-3.294 7.35-7.346 7.35h-164.536c-4.052 0-7.346-3.3-7.346-7.35"/><path d="m379.129 812.099h-129.129c-4.051 0-7.346-3.296-7.346-7.347 0-1.47.433-2.892 1.253-4.106l.655-.97-1.392-1.116h-70.571c-4.05 0-7.346-3.296-7.346-7.347 0-4.05 3.296-7.345 7.346-7.345h65.241c.882 4.551 4.892 8.002 9.698 8.002h3.39v-2.54h-3.39c-4.051 0-7.346-3.296-7.346-7.346s3.295-7.348 7.346-7.348h26.462c4.052 0 7.347 3.298 7.347 7.348 0 .17-.007.338-.018.504l-.077 1.183 1.368.186 23.381.011c4.052 0 7.347 3.295 7.347 7.345 0 3.855-3.009 7.074-6.85 7.331l.169 2.534c2.843-.19 5.344-1.59 7.021-3.671h65.441c4.054 0 7.348 3.297 7.348 7.345 0 4.051-3.294 7.347-7.348 7.347"/><path d="m667.207 157.95c0 13.26-10.747 24.01-24.009 24.01h-619.188c-13.259 0-24.01-10.75-24.01-24.01s10.751-24.01 24.01-24.01h619.188c13.262 0 24.009 10.75 24.009 24.01"/><path d="m667.207 1154.037c0 13.258-10.747 24.007-24.009 24.007h-619.188c-13.259 0-24.01-10.749-24.01-24.007 0-13.262 10.751-24.011 24.01-24.011h619.188c13.262 0 24.009 10.749 24.009 24.011"/><path d="m450.127 116.52h-6.243c0-60.81-49.472-110.28-110.279-110.28-60.811 0-110.282 49.47-110.282 110.28h-6.242c0-64.25 52.273-116.52 116.524-116.52s116.522 52.27 116.522 116.52"/><path d="m596.5 1043.014c-16.387 4.208-26.641 14.752-26.641 14.752 3.237 2.988 23.365-3.421 31.931-8.815-8.725 8.926-38.681 30.965-60.255 17.061 0 0 14.248-24.087 54.965-22.998m26.73 18.453c2.426-.463 4.75 1.044 5.191 3.363.441 2.321-1.167 4.576-3.591 5.037-2.425.462-4.748-1.045-5.189-3.365-.443-2.318 1.166-4.574 3.589-5.035m-98.052-44.96c-32.494 6.188-45.401 36.94-40.853 60.824.164.867.372 1.72.612 2.564-3.108 4.514-2.041 10.89 2.557 14.547 2.719 2.162 6.087 2.907 9.152 2.32 13.671 10.611 36.166 12.674 56.966-4.575 5.086-4.218 10.533-4.342 16.41-4.161 7.28 2.745 20.078 5.617 35.371.608 2.733-.896 5.502-4.179.653-5.806-2.1-.704-5.821-1.188-9.679-1.739 1.001-.823 2.014-1.741 3.036-2.765 5.234 2.892 11.416 4.163 17.298 3.042 14.443-2.749 27.129-17.627 25.494-26.218-2.8-14.706-19.084-28.909-33.837-28.273-.92.04-1.796.101-2.64.181-12.394-11.169-40.971-31.05-76.058-17.055 0 0 2.472 2.457 6.91 5.873-4.164-.192-8.016-.01-11.392.633"/><path d="m548.632 389.66c13.275 16.66 30.668 23.01 30.668 23.01 1.764-5.26-15.965-25.08-26.57-32.15 14.747 5.43 55.491 28.5 50.628 60.44 0 0-35.007-3.96-54.726-51.3m-27.551-10.29c-1.59-2.2-1.173-5.22.935-6.74 2.105-1.53 5.103-.97 6.694 1.23s1.169 5.22-.934 6.74c-2.107 1.52-5.104.97-6.695-1.23m107.816 109.33c14.634-17.731 20.279-45.29 2.737-69.57-10.356-14.34-36.587-28.52-59.29-36.65-.998-.36-1.989-.71-2.971-1.04 38.183 4.37 70.25-19.62 70.25-19.62-32.937-18.85-64.312-6.1-81.107 4.07-.402-.44-.814-.88-1.251-1.33-11.317-11.66-35.078-12.61-48.431-2.96-7.8 5.63-8.895 27.12.578 40.24.691.95 1.448 1.85 2.261 2.7-1.457-.65-2.758-1.18-3.794-1.46-5.423-1.51-4.922 3.19-2.981 5.69 7.546 9.72 16.339 15.23 23.795 18.35 6.584 14.29 21.278 16.91 23.004 31.05 4.733 38.782 36.997 53.113 59.27 44.473 4.125 3.821 10.304 4.466 14.799 1.218 4.711-3.404 5.946-9.903 3.131-15.161"/><path d="m91.1572 839.241s-26.596-9.149-33.769-49.452c7.461 15.28 19.915 23.239 19.915 23.239 2.286-3.789-8.098-22.308-15.141-29.646 10.553 6.781 38.3128 31.806 28.995 55.859m-60.354-26.963c-.312-.399-.624-.803-.935-1.208.329.14.659.279.992.409-.022.271-.039.533-.057.799m-7.968-23.418c-2.07 1.163-4.731.351-5.945-1.813-1.214-2.161-.521-4.858 1.547-6.02 2.071-1.161 4.732-.349 5.947 1.815 1.214 2.164.521 4.858-1.549 6.018m103.5918 39.687c-7.906-14.089-30.2298-29.684-49.9858-39.423-.867-.428-1.728-.842-2.585-1.245 34.1898 7.929 65.7798-10.494 65.7798-10.494-27.921-20.537-57.7168-12.233-74.0158-4.752-.318-.441-.646-.885-.994-1.336-9.058-11.756-30.517-15.085-43.637-7.721-7.663 4.301-10.894 23.686-3.661 36.568.47.838.993 1.64 1.559 2.408-2.212 1.714-3.839 5.673-3.483 7.489 2.515 12.848 9.49 20.654 15.659 25.202 4.142 3.054 9.331 4.95 11.958 5.785 3.682 4.17 6.768 8.333 6.815 14.631.141 19.561 8.559 33.311 19.611 40.836 3.052 11.197 9.492 27.774 22.222 37.133 20.4668 15.048 16.2528 4.214 15.0488-1.805-1.039-5.188-10.6158-15.675-13.2218-28.715 2.943-.246 5.819-.874 8.5468-1.903 1.592 8.824 4.752 18.199 10.791 25.596 16.073 19.672 14.691 8.128 15.024 1.999.316-5.764-7.649-20.166-5.262-34.739 1.624-.028 3.247-.442 4.742-1.281 5.073-2.848 6.745-9.502 3.736-14.864-.684-1.221-1.552-2.264-2.543-3.122 6.218-13.481 7.019-29.995-2.104-46.247"/><path d="m157.241 263.19c-10.723 5.51-29.5 22.26-28.401 27.39 0 0 17.029-4.12 31.283-18.37-23.576 42.41-56.914 42.41-56.914 42.41-1.174-30.55 39.59-47.9 54.032-51.43m24.256 43.56c.423-.02.847-.05 1.269-.08-.504.34-1.008.67-1.513 1 .082-.31.167-.61.244-.92m18.3-29.61c2.194-1.95 5.492-1.84 7.364.26s1.609 5.39-.586 7.35c-2.194 1.96-5.491 1.84-7.363-.26s-1.61-5.39.585-7.35m-152.1898 62.93c-1.44.58-2.815 1.41-4.051 2.52-5.441 4.85-6.133 12.95-1.544 18.1 1.353 1.52 3.013 2.6 4.822 3.27-2.943 17.25-17.422 30.32-19.291 36.91-1.989 6.99-7.988 19.4 17.612 3.54 9.622-5.96 16.777-15.25 21.963-24.52 2.66 2.2 5.643 4.01 8.848 5.42-7.948 13.61-22.726 21.68-25.889 27.09-3.671 6.28-12.571 16.81 16.173 7.83 17.874-5.59 31.484-21.69 39.2208-33.06 15.289-4.17 30.026-16.34 37.726-38.22 2.48-7.04 7.544-10.51 13.277-13.77 3.267.08 9.814-.04 15.633-1.87 8.669-2.72 19.498-8.78 27.27-22.22 1.097-1.89.802-6.96-1.018-9.73.932-.65 1.827-1.34 2.676-2.1 13.074-11.65 16.927-34.63 9.993-42.4-11.867-13.31-37.205-17.85-51.889-8.17-.565.37-1.104.74-1.629 1.12-15.387-14.67-45.584-35.47-84.7978-23.21 0 0 28.3068 32.83 69.6878 37.12-1.115.12-2.242.25-3.38.4-25.896 3.3-56.9308 12.18-71.2238 24.92-16.491 14.7-21.96 33.52-20.189 51.03"/><path d="m312.705 629.538s9.195-32.765 57.379-44.242c-17.936 10.077-26.684 25.68-26.684 25.68 4.74 2.496 26.383-11.342 34.758-20.358-7.455 13.218-35.751 48.497-65.453 38.92m73.092-34.824c-11.789 16.861-12.901 34.712-12.901 34.712 5.352.194 18.85-21.662 22.484-33.421-.982 15.144-11.168 59.206-42.089 63.463 0 0-5.929-33.51 32.506-64.754m33.24 1.545c1.871-2.347 5.21-2.797 7.455-1.007 2.243 1.79 2.546 5.144.674 7.49s-5.208 2.798-7.453 1.007c-2.245-1.79-2.546-5.145-.676-7.49m-126.645 102.632c-1.737 2.238-2.722 5.02-2.611 8.004.264 7.035 6.505 12.512 13.942 12.234 2.988-.113 5.713-1.139 7.888-2.778 5.864 3.911 12.15 7.155 18.534 8.606-.876 8.14.589 13.25 4.944 23.959 4.663 11.471 10.06 15.66 15.211 16.925 10.632 2.611 12.236-4.101 7.679-9.034-4.559-4.931-14.022-4.578-.898-24.018 8.125-12.038 14.466-34.341 18.119-49.589 1.38-4.279 2.699-8.943 3.952-14.023 2.61-10.587 11.087-14.89 18.593-21.689 12.121-.796 39.572-4.847 51.795-25.009 1.813-2.99 1.768-8.209-3.995-5.872-4.731 1.921-25.1 6.108-35.462 7.794.198-1.363.354-2.792.45-4.302 7.079-1.494 13.749-5.209 18.264-10.873 11.151-13.975 11.073-37.751 2.76-44.382-14.231-11.354-40.506-11.565-53.614.71-6.919 6.476-10.141 12.036-10.95 17.08-2.171.583-4.388 1.216-6.638 1.904-25.489 7.777-55.19 22.047-67.379 37.325-20.671 25.914-15.854 56.683-.584 77.028"/><path d="m397.142697 914.872641-39.636584 58.868394c-.641902.84947-.939243 1.911178-.830789 2.970811.107935 1.060151.612843 2.03987 1.413535 2.741967.800692.702616 1.836973 1.0752 2.901276 1.044065 1.063784-.031654 2.076714-.46547 2.834335-1.213751l39.004541-33.723296c.224692-.206374.505427-.342175.8064-.390486.301492-.048363.610248-.007161.888389.118521.27814.125682.513211.330292.676151.588454.162941.258162.246487.558513.24026.863793v105.996507c-.003114.32173-.104303.63516-.290076.89773s-.447308.46235-.749319.57237c-.302011.11001-.631005.12506-.941838.04307-.310832-.08199-.589492-.25687-.798616-.50128l-117.939892-141.216467c-1.882793-2.267104-4.238374-4.094581-6.901466-5.354356-2.663144-1.259774-5.569349-1.921333-8.51494-1.939064h-4.106828c-5.356645 0-10.49389 2.130338-14.281635 5.920984-3.787688 3.79065-5.915601 8.931892-5.915601 14.292687v149.267806c0 5.36095 2.127913 10.50188 5.915601 14.29258 3.787745 3.79071 8.92499 5.92035 14.281635 5.92035 3.451433 0 6.845215-.8858 9.857435-2.57228 3.012221-1.68597 5.542418-4.1171 7.349138-7.05989l39.636272-58.86824c.642422-.84999.939243-1.91118.831308-2.97133-.108454-1.05963-.613362-2.03935-1.414054-2.74197-.800173-.7021-1.836973-1.0752-2.900757-1.04354-1.064302.03165-2.077232.46495-2.834854 1.21375l-39.004281 33.72298c-.224899.20653-.505375.34249-.806659.39075-.301233.04826-.610093.00674-.88813-.11884-.278089-.12557-.513211-.33003-.676151-.58845-.162993-.2579-.246643-.55836-.240623-.86348v-105.891426c.003165-.321782.104458-.635001.290231-.897678s.447256-.462357.749475-.572316c.302218-.11001.630746-.125059.941734-.043122.310988.081886.589596.256813.798564.501432l117.93984 141.2161c1.897168 2.24692 4.261362 4.05224 6.928087 5.28986 2.666205 1.23762 5.570075 1.87797 8.509751 1.87641h4.212065c2.652194 0 5.278443-.52255 7.728778-1.53859 2.450854-1.01553 4.677016-2.5043 6.552908-4.38123 1.875373-1.87693 3.363114-4.10517 4.378119-6.55758 1.015006-2.45241 1.537039-5.08074 1.537039-7.73553v-149.246526c0-2.665064-.526185-5.303818-1.548974-7.76448-1.023308-2.46061-2.521946-4.694504-4.410811-6.573094s-4.130594-3.364826-6.595459-4.373153c-2.465384-1.008327-5.105124-1.518844-7.768216-1.502944-3.45133 0-6.84506.88677-9.857384 2.573012-3.012324 1.686238-5.542573 4.116906-7.34893 7.060006z"/><g transform="translate(142.497 1257.59617)"><path d="m81.812 1.3595303v95.109c-.01.746-.612 1.349-1.358 1.3590151h-9.892c-4.613.0039849-8.912-2.3370151-11.413-6.2140151l-44.892-69.384 1.54 34.655v39.584c-.009.746-.612 1.349-1.358 1.3590151h-13.08c-.746-.0100151-1.349-.6130151-1.359-1.3590151v-95.109c.01-.746.613-1.349 1.359-1.358h9.837c4.607.002 8.901 2.333 11.413 6.195l44.891 69.275-1.394-34.528v-39.584c0-.75.608-1.358 1.358-1.358h13.08c.711.055 1.261.645 1.268 1.358"/><path d="m215.49 97.8277232h-13.841c-.751-.0074929-1.353-.6214929-1.346119-1.3714929.001119-.15.028119-.299.078119-.441l36.667-94.709c.321-.814 1.119-1.335 1.993-1.305h17.337c.84.007 1.591.522 1.901 1.305l36.559 94.709c.25.708-.121 1.484-.828 1.735-.142.05-.291.076-.441.0774929h-13.84c-.567.0025071-1.078-.3434929-1.287-.8694929l-29.547-77.9c-.256-.705-1.035-1.069-1.74-.813-.379.138-.677.436-.814.813l-29.547 77.9c-.211.533-.731.88-1.304.8694929"/><path d="m390.925 95.6358303-27.5-35.127c15.525-2.936 24.602-13.406 24.602-29.476 0-18.46-12.011-31.032-33.261-31.032h-38.352c-1.121 0-2.029.908-2.029 2.03 0 7.203 5.84 13.042 13.044 13.042h25.743c12.844 0 19.003 6.577 19.003 16.07 0 9.492-6.015 16.304-19.003 16.304h-36.758c-1.124.01-2.029.923-2.029 2.047v47.102c0 .75.608 1.358 1.359 1.358h13.079c.747-.009 1.35-.612 1.36-1.358v-35.236h15.09l23.859 31.141c2.59 3.378 6.612 5.35 10.869 5.326h9.928c.749-.041 1.323-.682 1.281-1.431-.014-.277-.114-.542-.285-.76"/><path d="m174.131 82.7364303h-45.29c-.746-.01-1.349-.612-1.358-1.358v-24.53c0-.75.608-1.358 1.358-1.358h41.866c.75 0 1.359-.608 1.359-1.358v-12.464c0-.751-.609-1.36-1.359-1.36h-57.047c-1.124.011-2.029.924-2.029 2.048v53.369c0 1.121.908 2.03 2.029 2.03h60.471c.75 0 1.358-.609 1.358-1.359v-12.374c-.029-.725-.631-1.296-1.358-1.286m0-82.735h-60.688c-1.001 0-1.812.81-1.812 1.811 0 7.334 5.945 13.2792419 13.279 13.2792419h49.221c.74.0097581 1.349-.5822419 1.358562-1.3222419 0-.012 0-.024 0-.037v-12.373c0-.75-.607562-1.358-1.358562-1.358"/></g></g></svg>